<mxfile host="app.diagrams.net" modified="2023-05-06T13:16:32.523Z" agent="Mozilla/5.0 (Macintosh; Intel Mac OS X 10_15_7) AppleWebKit/537.36 (KHTML, like Gecko) Chrome/112.0.0.0 Safari/537.36" etag="B0w927qRXbc_QTSicHCz" version="21.1.5" type="github">
  <diagram id="C5RBs43oDa-KdzZeNtuy" name="Page-1">
    <mxGraphModel dx="993" dy="1414" grid="1" gridSize="10" guides="1" tooltips="1" connect="1" arrows="1" fold="1" page="1" pageScale="1" pageWidth="827" pageHeight="1169" math="0" shadow="0">
      <root>
        <mxCell id="WIyWlLk6GJQsqaUBKTNV-0" />
        <mxCell id="WIyWlLk6GJQsqaUBKTNV-1" parent="WIyWlLk6GJQsqaUBKTNV-0" />
        <mxCell id="gtavfHgQEdDpro3U7-QB-34" value="" style="edgeStyle=orthogonalEdgeStyle;rounded=0;orthogonalLoop=1;jettySize=auto;html=1;entryX=0.003;entryY=-0.022;entryDx=0;entryDy=0;entryPerimeter=0;" edge="1" parent="WIyWlLk6GJQsqaUBKTNV-1" source="gtavfHgQEdDpro3U7-QB-18" target="gtavfHgQEdDpro3U7-QB-26">
          <mxGeometry relative="1" as="geometry">
            <mxPoint x="475" y="275" as="targetPoint" />
          </mxGeometry>
        </mxCell>
        <mxCell id="gtavfHgQEdDpro3U7-QB-18" value="User" style="swimlane;fontStyle=1;align=center;verticalAlign=top;childLayout=stackLayout;horizontal=1;startSize=26;horizontalStack=0;resizeParent=1;resizeParentMax=0;resizeLast=0;collapsible=1;marginBottom=0;whiteSpace=wrap;html=1;" vertex="1" parent="WIyWlLk6GJQsqaUBKTNV-1">
          <mxGeometry x="80" y="175" width="190" height="200" as="geometry" />
        </mxCell>
        <mxCell id="gtavfHgQEdDpro3U7-QB-19" value="id&lt;br&gt;username&lt;br&gt;password&lt;br&gt;sessionId&lt;br&gt;db" style="text;strokeColor=none;fillColor=none;align=left;verticalAlign=top;spacingLeft=4;spacingRight=4;overflow=hidden;rotatable=0;points=[[0,0.5],[1,0.5]];portConstraint=eastwest;whiteSpace=wrap;html=1;" vertex="1" parent="gtavfHgQEdDpro3U7-QB-18">
          <mxGeometry y="26" width="190" height="74" as="geometry" />
        </mxCell>
        <mxCell id="gtavfHgQEdDpro3U7-QB-20" value="" style="line;strokeWidth=1;fillColor=none;align=left;verticalAlign=middle;spacingTop=-1;spacingLeft=3;spacingRight=3;rotatable=0;labelPosition=right;points=[];portConstraint=eastwest;strokeColor=inherit;" vertex="1" parent="gtavfHgQEdDpro3U7-QB-18">
          <mxGeometry y="100" width="190" height="8" as="geometry" />
        </mxCell>
        <mxCell id="gtavfHgQEdDpro3U7-QB-21" value="login(username, password)&lt;br&gt;signup(username, password)&lt;br&gt;createSession(userId)&lt;br&gt;getUserIdByName(username)&lt;br&gt;follow(username)" style="text;strokeColor=none;fillColor=none;align=left;verticalAlign=top;spacingLeft=4;spacingRight=4;overflow=hidden;rotatable=0;points=[[0,0.5],[1,0.5]];portConstraint=eastwest;whiteSpace=wrap;html=1;" vertex="1" parent="gtavfHgQEdDpro3U7-QB-18">
          <mxGeometry y="108" width="190" height="92" as="geometry" />
        </mxCell>
        <mxCell id="gtavfHgQEdDpro3U7-QB-42" value="" style="edgeStyle=orthogonalEdgeStyle;rounded=0;orthogonalLoop=1;jettySize=auto;html=1;entryX=0.5;entryY=0;entryDx=0;entryDy=0;" edge="1" parent="WIyWlLk6GJQsqaUBKTNV-1" source="gtavfHgQEdDpro3U7-QB-23" target="gtavfHgQEdDpro3U7-QB-27">
          <mxGeometry relative="1" as="geometry">
            <mxPoint x="540" y="515" as="targetPoint" />
          </mxGeometry>
        </mxCell>
        <mxCell id="gtavfHgQEdDpro3U7-QB-23" value="Post" style="swimlane;fontStyle=1;align=center;verticalAlign=top;childLayout=stackLayout;horizontal=1;startSize=26;horizontalStack=0;resizeParent=1;resizeParentMax=0;resizeLast=0;collapsible=1;marginBottom=0;whiteSpace=wrap;html=1;" vertex="1" parent="WIyWlLk6GJQsqaUBKTNV-1">
          <mxGeometry x="460" y="180" width="160" height="190" as="geometry" />
        </mxCell>
        <mxCell id="gtavfHgQEdDpro3U7-QB-24" value="id&lt;br&gt;userId&lt;br&gt;db" style="text;strokeColor=none;fillColor=none;align=left;verticalAlign=top;spacingLeft=4;spacingRight=4;overflow=hidden;rotatable=0;points=[[0,0.5],[1,0.5]];portConstraint=eastwest;whiteSpace=wrap;html=1;" vertex="1" parent="gtavfHgQEdDpro3U7-QB-23">
          <mxGeometry y="26" width="160" height="64" as="geometry" />
        </mxCell>
        <mxCell id="gtavfHgQEdDpro3U7-QB-25" value="" style="line;strokeWidth=1;fillColor=none;align=left;verticalAlign=middle;spacingTop=-1;spacingLeft=3;spacingRight=3;rotatable=0;labelPosition=right;points=[];portConstraint=eastwest;strokeColor=inherit;" vertex="1" parent="gtavfHgQEdDpro3U7-QB-23">
          <mxGeometry y="90" width="160" height="8" as="geometry" />
        </mxCell>
        <mxCell id="gtavfHgQEdDpro3U7-QB-26" value="createPost(feed)&lt;br&gt;showNewsFeed()&lt;br&gt;vote(postId, voteType)" style="text;strokeColor=none;fillColor=none;align=left;verticalAlign=top;spacingLeft=4;spacingRight=4;overflow=hidden;rotatable=0;points=[[0,0.5],[1,0.5]];portConstraint=eastwest;whiteSpace=wrap;html=1;" vertex="1" parent="gtavfHgQEdDpro3U7-QB-23">
          <mxGeometry y="98" width="160" height="92" as="geometry" />
        </mxCell>
        <mxCell id="gtavfHgQEdDpro3U7-QB-27" value="Comment" style="swimlane;fontStyle=1;align=center;verticalAlign=top;childLayout=stackLayout;horizontal=1;startSize=26;horizontalStack=0;resizeParent=1;resizeParentMax=0;resizeLast=0;collapsible=1;marginBottom=0;whiteSpace=wrap;html=1;" vertex="1" parent="WIyWlLk6GJQsqaUBKTNV-1">
          <mxGeometry x="400" y="510" width="280" height="180" as="geometry" />
        </mxCell>
        <mxCell id="gtavfHgQEdDpro3U7-QB-28" value="id&lt;br&gt;userId&lt;br&gt;db" style="text;strokeColor=none;fillColor=none;align=left;verticalAlign=top;spacingLeft=4;spacingRight=4;overflow=hidden;rotatable=0;points=[[0,0.5],[1,0.5]];portConstraint=eastwest;whiteSpace=wrap;html=1;" vertex="1" parent="gtavfHgQEdDpro3U7-QB-27">
          <mxGeometry y="26" width="280" height="54" as="geometry" />
        </mxCell>
        <mxCell id="gtavfHgQEdDpro3U7-QB-29" value="" style="line;strokeWidth=1;fillColor=none;align=left;verticalAlign=middle;spacingTop=-1;spacingLeft=3;spacingRight=3;rotatable=0;labelPosition=right;points=[];portConstraint=eastwest;strokeColor=inherit;" vertex="1" parent="gtavfHgQEdDpro3U7-QB-27">
          <mxGeometry y="80" width="280" height="8" as="geometry" />
        </mxCell>
        <mxCell id="gtavfHgQEdDpro3U7-QB-30" value="createCommentOnPost(postId, commentText)&lt;br&gt;createCommentOnComment(parentCommentId, commentText)&lt;br&gt;getPostID(commentId)&lt;br&gt;vote(commentId, voteType)" style="text;strokeColor=none;fillColor=none;align=left;verticalAlign=top;spacingLeft=4;spacingRight=4;overflow=hidden;rotatable=0;points=[[0,0.5],[1,0.5]];portConstraint=eastwest;whiteSpace=wrap;html=1;" vertex="1" parent="gtavfHgQEdDpro3U7-QB-27">
          <mxGeometry y="88" width="280" height="92" as="geometry" />
        </mxCell>
        <mxCell id="gtavfHgQEdDpro3U7-QB-35" value="1:M" style="text;html=1;align=center;verticalAlign=middle;resizable=0;points=[];autosize=1;strokeColor=none;fillColor=none;" vertex="1" parent="WIyWlLk6GJQsqaUBKTNV-1">
          <mxGeometry x="330" y="250" width="40" height="30" as="geometry" />
        </mxCell>
        <mxCell id="gtavfHgQEdDpro3U7-QB-39" value="1:M" style="text;html=1;align=center;verticalAlign=middle;resizable=0;points=[];autosize=1;strokeColor=none;fillColor=none;" vertex="1" parent="WIyWlLk6GJQsqaUBKTNV-1">
          <mxGeometry x="550" y="430" width="40" height="30" as="geometry" />
        </mxCell>
      </root>
    </mxGraphModel>
  </diagram>
</mxfile>
